<svg width="200" height="200" viewBox="0 0 200 200" fill="none" xmlns="http://www.w3.org/2000/svg">
<path d="M46.1667 183.667C38.1111 183.667 31.2361 180.819 25.5417 175.125C19.8472 169.431 17 162.556 17 154.5C17 146.444 19.8472 139.569 25.5417 133.875C31.2361 128.181 38.1111 125.333 46.1667 125.333C48.6667 125.333 51.0972 125.646 53.4583 126.271C55.8194 126.896 58.0417 127.764 60.125 128.875L92 97V74.0833C85.8889 72.2778 80.8889 68.8403 77 63.7708C73.1111 58.7014 71.1667 52.8333 71.1667 46.1667C71.1667 38.1111 74.0139 31.2361 79.7083 25.5417C85.4028 19.8472 92.2778 17 100.333 17C108.389 17 115.264 19.8472 120.958 25.5417C126.653 31.2361 129.5 38.1111 129.5 46.1667C129.5 52.8333 127.556 58.7014 123.667 63.7708C119.778 68.8403 114.778 72.2778 108.667 74.0833V97L140.75 128.875C142.833 127.764 145.021 126.896 147.312 126.271C149.604 125.646 152 125.333 154.5 125.333C162.556 125.333 169.431 128.181 175.125 133.875C180.819 139.569 183.667 146.444 183.667 154.5C183.667 162.556 180.819 169.431 175.125 175.125C169.431 180.819 162.556 183.667 154.5 183.667C146.444 183.667 139.569 180.819 133.875 175.125C128.181 169.431 125.333 162.556 125.333 154.5C125.333 152 125.646 149.569 126.271 147.208C126.896 144.847 127.764 142.625 128.875 140.542L100.333 112L71.7917 140.542C72.9028 142.625 73.7708 144.847 74.3958 147.208C75.0208 149.569 75.3333 152 75.3333 154.5C75.3333 162.556 72.4861 169.431 66.7917 175.125C61.0972 180.819 54.2222 183.667 46.1667 183.667Z" fill="black"/>
<path d="M153.5 88.5V111H168.5V88.5H191V73.5H168.5V51H153.5V73.5H131V88.5H153.5Z" fill="black"/>
</svg>
