<svg width="200" height="200" viewBox="0 0 200 200" fill="none" xmlns="http://www.w3.org/2000/svg">
<path d="M45.8334 183.333C37.7778 183.333 30.9028 180.486 25.2084 174.792C19.5139 169.097 16.6667 162.222 16.6667 154.167C16.6667 146.111 19.5139 139.236 25.2084 133.542C30.9028 127.847 37.7778 125 45.8334 125C48.3334 125 50.7639 125.312 53.125 125.937C55.4861 126.562 57.7084 127.431 59.7917 128.542L91.6667 96.6666V73.75C85.5556 71.9444 80.5556 68.5069 76.6667 63.4375C72.7778 58.368 70.8334 52.5 70.8334 45.8333C70.8334 37.7777 73.6806 30.9027 79.375 25.2083C85.0695 19.5138 91.9445 16.6666 100 16.6666C108.056 16.6666 114.931 19.5138 120.625 25.2083C126.319 30.9027 129.167 37.7777 129.167 45.8333C129.167 52.5 127.222 58.368 123.333 63.4375C119.444 68.5069 114.444 71.9444 108.333 73.75V96.6666L140.417 128.542C142.5 127.431 144.688 126.562 146.979 125.937C149.271 125.312 151.667 125 154.167 125C162.222 125 169.097 127.847 174.792 133.542C180.486 139.236 183.333 146.111 183.333 154.167C183.333 162.222 180.486 169.097 174.792 174.792C169.097 180.486 162.222 183.333 154.167 183.333C146.111 183.333 139.236 180.486 133.542 174.792C127.847 169.097 125 162.222 125 154.167C125 151.667 125.313 149.236 125.938 146.875C126.563 144.514 127.431 142.292 128.542 140.208L100 111.667L71.4584 140.208C72.5695 142.292 73.4375 144.514 74.0625 146.875C74.6875 149.236 75 151.667 75 154.167C75 162.222 72.1528 169.097 66.4584 174.792C60.7639 180.486 53.8889 183.333 45.8334 183.333Z" fill="black"/>
<path d="M136 92V110H148V92H166V80H148V62H136V80H118V92H136Z" fill="black"/>
</svg>
